<svg height="512pt" viewBox="0 0 512 512" width="512pt" xmlns="http://www.w3.org/2000/svg"><path d="m368.246094 418.132812h-34.132813l37.105469 68.898438c2.617188 4.863281 7.703125 7.902344 13.226562 7.902344 11.375 0 18.617188-12.144532 13.234376-22.152344zm0 0" fill="#839594"/><path d="m238.933594 418.132812v61.773438c0 8.304688 6.722656 15.027344 15.027344 15.027344h4.078124c8.304688 0 15.027344-6.722656 15.027344-15.027344v-61.773438zm0 0" fill="#839594"/><path d="m143.753906 418.132812-29.425781 54.648438c-5.390625 10.007812 1.863281 22.152344 13.226563 22.152344 5.53125 0 10.609374-3.039063 13.226562-7.902344l37.105469-68.898438zm0 0" fill="#839594"/><path d="m401.066406 34.132812v34.132813c0 9.386719-7.679687 17.066406-17.066406 17.066406s-17.066406-7.679687-17.066406-17.066406v-34.132813h-51.199219v34.132813c0 9.386719-7.679687 17.066406-17.066406 17.066406s-17.066407-7.679687-17.066407-17.066406v-34.132813h-51.203124v34.132813c0 9.386719-7.679688 17.066406-17.066407 17.066406s-17.066406-7.679687-17.066406-17.066406v-34.132813h-51.199219v34.132813c0 9.386719-7.679687 17.066406-17.066406 17.066406s-17.066406-7.679687-17.066406-17.066406v-34.132813h-102.398438v392.535157h494.929688v-392.535157zm0 0" fill="#e7eced"/><path d="m401.066406 68.265625c0 9.386719-7.679687 17.066406-17.066406 17.066406s-17.066406-7.679687-17.066406-17.066406h-51.199219c0 9.386719-7.679687 17.066406-17.066406 17.066406s-17.066407-7.679687-17.066407-17.066406h-51.203124c0 9.386719-7.679688 17.066406-17.066407 17.066406s-17.066406-7.679687-17.066406-17.066406h-51.199219c0 9.386719-7.679687 17.066406-17.066406 17.066406s-17.066406-7.679687-17.066406-17.066406h-68.265625v290.132813h426.664062v-290.132813zm0 0" fill="#fff"/><path d="m68.265625 358.398438h375.46875v34.136718h-375.46875zm0 0" fill="#839594"/><path d="m128 85.332031c-9.386719 0-17.066406-7.679687-17.066406-17.066406v-42.664063c0-9.386718 7.679687-17.066406 17.066406-17.066406s17.066406 7.679688 17.066406 17.066406v42.664063c0 9.386719-7.679687 17.066406-17.066406 17.066406zm0 0" fill="#7383bf"/><path d="m213.332031 85.332031c-9.386719 0-17.066406-7.679687-17.066406-17.066406v-42.664063c0-9.386718 7.679687-17.066406 17.066406-17.066406s17.066407 7.679688 17.066407 17.066406v42.664063c0 9.386719-7.679688 17.066406-17.066407 17.066406zm0 0" fill="#7383bf"/><path d="m298.667969 85.332031c-9.386719 0-17.066407-7.679687-17.066407-17.066406v-42.664063c0-9.386718 7.679688-17.066406 17.066407-17.066406s17.066406 7.679688 17.066406 17.066406v42.664063c0 9.386719-7.679687 17.066406-17.066406 17.066406zm0 0" fill="#7383bf"/><path d="m384 85.332031c-9.386719 0-17.066406-7.679687-17.066406-17.066406v-42.664063c0-9.386718 7.679687-17.066406 17.066406-17.066406s17.066406 7.679688 17.066406 17.066406v42.664063c0 9.386719-7.679687 17.066406-17.066406 17.066406zm0 0" fill="#7383bf"/><path d="m128 264.535156c0 14.136719-11.460938 25.597656-25.601562 25.597656-14.136719 0-25.597657-11.460937-25.597657-25.597656 0-14.140625 11.460938-25.601562 25.597657-25.601562 14.140624 0 25.601562 11.460937 25.601562 25.601562zm0 0" fill="#cc4b4c"/><path d="m435.199219 179.199219c0 14.140625-11.460938 25.601562-25.597657 25.601562-14.140624 0-25.601562-11.460937-25.601562-25.601562 0-14.136719 11.460938-25.597657 25.601562-25.597657 14.136719 0 25.597657 11.460938 25.597657 25.597657zm0 0" fill="#cc4b4c"/><path d="m230.398438 196.265625c0 14.140625-11.460938 25.601563-25.597657 25.601563-14.140625 0-25.601562-11.460938-25.601562-25.601563 0-14.136719 11.460937-25.597656 25.601562-25.597656 14.136719 0 25.597657 11.460937 25.597657 25.597656zm0 0" fill="#cc4b4c"/><path d="m332.800781 256c0 14.136719-11.460937 25.601562-25.601562 25.601562-14.136719 0-25.597657-11.464843-25.597657-25.601562s11.460938-25.601562 25.597657-25.601562c14.140625 0 25.601562 11.464843 25.601562 25.601562zm0 0" fill="#cc4b4c"/><g fill="#4d007e"><path d="m384.445312 512c-8.679687 0-16.632812-4.753906-20.746093-12.398438l-37.09375-68.890624c-1.425781-2.644532-1.359375-5.84375.1875-8.421876 1.535156-2.578124 4.316406-4.15625 7.320312-4.15625h34.132813c3.140625 0 6.027344 1.722657 7.511718 4.488282l29.421876 54.648437c3.96875 7.371094 3.773437 16.066407-.519532 23.253907-4.285156 7.183593-11.84375 11.476562-20.214844 11.476562zm-36.046874-76.800781 30.328124 56.320312c1.136719 2.109375 3.328126 3.414063 5.71875 3.414063 3.328126 0 5.007813-2.210938 5.570313-3.167969.5625-.953125 1.714844-3.480469.144531-6.40625l-27.015625-50.160156zm0 0"/><path d="m258.039062 512h-4.078124c-12.988282 0-23.5625-10.5625-23.5625-23.558594v-61.773437c0-4.710938 3.824218-8.535157 8.535156-8.535157h34.132812c4.710938 0 8.535156 3.824219 8.535156 8.535157v61.773437c0 12.996094-10.574218 23.558594-23.5625 23.558594zm-10.574218-76.800781v53.242187c0 3.582032 2.910156 6.492188 6.496094 6.492188h4.078124c3.585938 0 6.496094-2.910156 6.496094-6.492188v-53.242187zm0 0"/><path d="m127.554688 512c-8.371094 0-15.929688-4.292969-20.222657-11.476562-4.292969-7.1875-4.488281-15.882813-.519531-23.253907l29.429688-54.648437c1.484374-2.765625 4.371093-4.488282 7.511718-4.488282h34.132813c3.003906 0 5.785156 1.578126 7.328125 4.15625 1.539062 2.578126 1.613281 5.777344.1875 8.421876l-37.101563 68.898437c-4.113281 7.636719-12.058593 12.390625-20.746093 12.390625zm21.300781-76.800781-27.015625 50.160156c-1.578125 2.925781-.425782 5.460937.144531 6.40625.570313.949219 2.242187 3.167969 5.570313 3.167969 2.390624 0 4.582031-1.304688 5.71875-3.414063l30.328124-56.320312zm0 0"/><path d="m503.464844 435.199219h-494.929688c-4.710937 0-8.535156-3.820313-8.535156-8.53125v-392.535157c0-4.710937 3.824219-8.53125 8.535156-8.53125h102.398438c4.710937 0 8.53125 3.820313 8.53125 8.53125v34.132813c0 4.703125 3.824218 8.535156 8.535156 8.535156s8.535156-3.832031 8.535156-8.535156v-34.132813c0-4.710937 3.820313-8.53125 8.53125-8.53125h51.199219c4.710937 0 8.535156 3.820313 8.535156 8.53125v34.132813c0 4.703125 3.820313 8.535156 8.53125 8.535156 4.710938 0 8.535157-3.832031 8.535157-8.535156v-34.132813c0-4.710937 3.824218-8.53125 8.53125-8.53125h51.203124c4.707032 0 8.53125 3.820313 8.53125 8.53125v34.132813c0 4.703125 3.824219 8.535156 8.535157 8.535156 4.710937 0 8.53125-3.832031 8.53125-8.535156v-34.132813c0-4.710937 3.824219-8.53125 8.535156-8.53125h51.199219c4.710937 0 8.53125 3.820313 8.53125 8.53125v34.132813c0 4.703125 3.824218 8.535156 8.535156 8.535156s8.535156-3.832031 8.535156-8.535156v-34.132813c0-4.710937 3.820313-8.53125 8.53125-8.53125h102.398438c4.710937 0 8.535156 3.820313 8.535156 8.53125v392.535157c0 4.710937-3.824219 8.53125-8.535156 8.53125zm-486.398438-17.066407h477.867188v-375.464843h-85.332032v25.597656c0 14.113281-11.488281 25.601563-25.601562 25.601563s-25.601562-11.488282-25.601562-25.601563v-25.597656h-34.132813v25.597656c0 14.113281-11.484375 25.601563-25.597656 25.601563-14.117188 0-25.601563-11.488282-25.601563-25.601563v-25.597656h-34.132812v25.597656c0 14.113281-11.484375 25.601563-25.601563 25.601563-14.113281 0-25.597656-11.488282-25.597656-25.601563v-25.597656h-34.132813v25.597656c0 14.113281-11.488281 25.601563-25.601562 25.601563s-25.601562-11.488282-25.601562-25.601563v-25.597656h-85.332032zm0 0"/><path d="m128 93.867188c-14.113281 0-25.601562-11.488282-25.601562-25.601563v-42.664063c0-14.117187 11.488281-25.601562 25.601562-25.601562s25.601562 11.484375 25.601562 25.601562v42.664063c0 14.113281-11.488281 25.601563-25.601562 25.601563zm0-76.800782c-4.710938 0-8.535156 3.832032-8.535156 8.535156v42.664063c0 4.703125 3.824218 8.535156 8.535156 8.535156s8.535156-3.832031 8.535156-8.535156v-42.664063c0-4.703124-3.824218-8.535156-8.535156-8.535156zm0 0"/><path d="m213.332031 93.867188c-14.113281 0-25.597656-11.488282-25.597656-25.601563v-42.664063c0-14.117187 11.484375-25.601562 25.597656-25.601562 14.117188 0 25.601563 11.484375 25.601563 25.601562v42.664063c0 14.113281-11.484375 25.601563-25.601563 25.601563zm0-76.800782c-4.710937 0-8.53125 3.832032-8.53125 8.535156v42.664063c0 4.703125 3.820313 8.535156 8.53125 8.535156 4.710938 0 8.535157-3.832031 8.535157-8.535156v-42.664063c0-4.703124-3.824219-8.535156-8.535157-8.535156zm0 0"/><path d="m298.667969 93.867188c-14.117188 0-25.601563-11.488282-25.601563-25.601563v-42.664063c0-14.117187 11.484375-25.601562 25.601563-25.601562 14.113281 0 25.597656 11.484375 25.597656 25.601562v42.664063c0 14.113281-11.484375 25.601563-25.597656 25.601563zm0-76.800782c-4.710938 0-8.535157 3.832032-8.535157 8.535156v42.664063c0 4.703125 3.824219 8.535156 8.535157 8.535156 4.710937 0 8.53125-3.832031 8.53125-8.535156v-42.664063c0-4.703124-3.820313-8.535156-8.53125-8.535156zm0 0"/><path d="m384 93.867188c-14.113281 0-25.601562-11.488282-25.601562-25.601563v-42.664063c0-14.117187 11.488281-25.601562 25.601562-25.601562s25.601562 11.484375 25.601562 25.601562v42.664063c0 14.113281-11.488281 25.601563-25.601562 25.601563zm0-76.800782c-4.710938 0-8.535156 3.832032-8.535156 8.535156v42.664063c0 4.703125 3.824218 8.535156 8.535156 8.535156s8.535156-3.832031 8.535156-8.535156v-42.664063c0-4.703124-3.824218-8.535156-8.535156-8.535156zm0 0"/><path d="m469.332031 366.933594h-426.664062c-4.710938 0-8.535157-3.824219-8.535157-8.535156v-290.132813c0-4.710937 3.824219-8.53125 8.535157-8.53125h68.265625c4.710937 0 8.53125 3.820313 8.53125 8.53125 0 4.703125 3.824218 8.535156 8.535156 8.535156s8.535156-3.832031 8.535156-8.535156c0-4.710937 3.820313-8.53125 8.53125-8.53125h51.199219c4.710937 0 8.535156 3.820313 8.535156 8.53125 0 4.703125 3.820313 8.535156 8.53125 8.535156 4.710938 0 8.535157-3.832031 8.535157-8.535156 0-4.710937 3.824218-8.53125 8.53125-8.53125h51.203124c4.707032 0 8.53125 3.820313 8.53125 8.53125 0 4.703125 3.824219 8.535156 8.535157 8.535156 4.710937 0 8.53125-3.832031 8.53125-8.535156 0-4.710937 3.824219-8.53125 8.535156-8.53125h51.199219c4.710937 0 8.53125 3.820313 8.53125 8.53125 0 4.703125 3.824218 8.535156 8.535156 8.535156s8.535156-3.832031 8.535156-8.535156c0-4.710937 3.820313-8.53125 8.53125-8.53125h68.265625c4.710938 0 8.535157 3.820313 8.535157 8.53125v290.132813c0 4.710937-3.824219 8.535156-8.535157 8.535156zm-418.132812-17.066406h409.601562v-273.066407h-52.660156c-3.523437 9.933594-13.011719 17.066407-24.140625 17.066407s-20.617188-7.132813-24.140625-17.066407h-37.058594c-3.527343 9.933594-13.015625 17.066407-24.144531 17.066407-11.125 0-20.613281-7.132813-24.140625-17.066407h-37.058594c-3.523437 9.933594-13.011719 17.066407-24.140625 17.066407s-20.617187-7.132813-24.140625-17.066407h-37.0625c-3.523437 9.933594-13.011719 17.066407-24.140625 17.066407-11.125 0-20.613281-7.132813-24.140625-17.066407h-52.632812zm0 0"/><path d="m443.734375 401.066406h-375.46875c-4.710937 0-8.53125-3.824218-8.53125-8.53125v-34.136718c0-4.707032 3.820313-8.53125 8.53125-8.53125h375.46875c4.710937 0 8.53125 3.824218 8.53125 8.53125v34.136718c0 4.707032-3.820313 8.53125-8.53125 8.53125zm-366.933594-17.066406h358.398438v-17.066406h-358.398438zm0 0"/><path d="m128 119.464844c-4.710938 0-8.535156-3.820313-8.535156-8.53125v-25.601563c0-4.710937 3.824218-8.53125 8.535156-8.53125s8.535156 3.820313 8.535156 8.53125v25.601563c0 4.710937-3.824218 8.53125-8.535156 8.53125zm0 0"/><path d="m213.332031 119.464844c-4.710937 0-8.53125-3.820313-8.53125-8.53125v-25.601563c0-4.710937 3.820313-8.53125 8.53125-8.53125 4.710938 0 8.535157 3.820313 8.535157 8.53125v25.601563c0 4.710937-3.824219 8.53125-8.535157 8.53125zm0 0"/><path d="m298.667969 119.464844c-4.710938 0-8.535157-3.820313-8.535157-8.53125v-25.601563c0-4.710937 3.824219-8.53125 8.535157-8.53125 4.710937 0 8.53125 3.820313 8.53125 8.53125v25.601563c0 4.710937-3.820313 8.53125-8.53125 8.53125zm0 0"/><path d="m384 119.464844c-4.710938 0-8.535156-3.820313-8.535156-8.53125v-25.601563c0-4.710937 3.824218-8.53125 8.535156-8.53125s8.535156 3.820313 8.535156 8.53125v25.601563c0 4.710937-3.824218 8.53125-8.535156 8.53125zm0 0"/><path d="m102.398438 298.667969c-18.824219 0-34.132813-15.308594-34.132813-34.132813 0-18.828125 15.308594-34.136718 34.132813-34.136718 18.824218 0 34.136718 15.308593 34.136718 34.136718 0 18.824219-15.3125 34.132813-34.136718 34.132813zm0-51.203125c-9.410157 0-17.066407 7.65625-17.066407 17.070312 0 9.410156 7.65625 17.066406 17.066407 17.066406 9.414062 0 17.066406-7.65625 17.066406-17.066406 0-9.414062-7.652344-17.070312-17.066406-17.070312zm0 0"/><path d="m409.601562 213.332031c-18.824218 0-34.136718-15.308593-34.136718-34.132812s15.3125-34.132813 34.136718-34.132813c18.824219 0 34.132813 15.308594 34.132813 34.132813s-15.308594 34.132812-34.132813 34.132812zm0-51.199219c-9.414062 0-17.066406 7.65625-17.066406 17.066407 0 9.414062 7.652344 17.066406 17.066406 17.066406 9.410157 0 17.066407-7.652344 17.066407-17.066406 0-9.410157-7.65625-17.066407-17.066407-17.066407zm0 0"/><path d="m204.800781 230.398438c-18.824219 0-34.132812-15.308594-34.132812-34.132813s15.308593-34.132813 34.132812-34.132813 34.132813 15.308594 34.132813 34.132813-15.308594 34.132813-34.132813 34.132813zm0-51.199219c-9.414062 0-17.066406 7.65625-17.066406 17.066406 0 9.414063 7.652344 17.066406 17.066406 17.066406 9.410157 0 17.066407-7.652343 17.066407-17.066406 0-9.410156-7.65625-17.066406-17.066407-17.066406zm0 0"/><path d="m307.199219 290.132812c-18.824219 0-34.132813-15.308593-34.132813-34.132812s15.308594-34.132812 34.132813-34.132812 34.132812 15.308593 34.132812 34.132812-15.308593 34.132812-34.132812 34.132812zm0-51.199218c-9.410157 0-17.066407 7.652344-17.066407 17.066406s7.65625 17.066406 17.066407 17.066406c9.414062 0 17.066406-7.652344 17.066406-17.066406s-7.652344-17.066406-17.066406-17.066406zm0 0"/><path d="m122.199219 256.878906c-2.613281 0-5.191407-1.195312-6.863281-3.457031-2.808594-3.789063-2.003907-9.128906 1.777343-11.9375l58.546875-43.359375c3.789063-2.796875 9.128906-2.003906 11.9375 1.777344 2.804688 3.789062 2.003906 9.128906-1.777344 11.9375l-58.546874 43.359375c-1.535157 1.132812-3.308594 1.679687-5.074219 1.679687zm0 0"/><path d="m332.800781 264.535156c-2.03125 0-4.0625-.71875-5.691406-2.179687-3.507813-3.148438-3.808594-8.539063-.65625-12.046875l55.761719-62.207032c3.152344-3.507812 8.542968-3.808593 12.050781-.660156 3.507813 3.152344 3.804687 8.542969.65625 12.050782l-55.765625 62.207031c-1.6875 1.878906-4.019531 2.835937-6.355469 2.835937zm0 0"/><path d="m285.695312 250.648438c-1.613281 0-3.234374-.449219-4.683593-1.40625l-56.746094-37.351563c-3.933594-2.59375-5.027344-7.882813-2.433594-11.816406 2.59375-3.9375 7.886719-5.027344 11.820313-2.441407l56.746094 37.347657c3.933593 2.597656 5.027343 7.886719 2.429687 11.820312-1.636719 2.492188-4.359375 3.847657-7.132813 3.847657zm0 0"/></g></svg>