<?xml version="1.0" encoding="iso-8859-1"?>
<!-- Generator: Adobe Illustrator 19.0.0, SVG Export Plug-In . SVG Version: 6.00 Build 0)  -->
<svg version="1.1" id="Capa_1" xmlns="http://www.w3.org/2000/svg" xmlns:xlink="http://www.w3.org/1999/xlink" x="0px" y="0px"
	 viewBox="0 0 512 512" style="enable-background:new 0 0 512 512;" xml:space="preserve">
<path style="fill:#ECF0F1;" d="M475.733,503.467H36.267c-15.317,0-27.733-12.416-27.733-27.733v-364.8h494.933v364.8
	C503.467,491.051,491.051,503.467,475.733,503.467z"/>
<path style="fill:#687492;" d="M503.467,110.933H8.533V36.267c0-15.317,12.416-27.733,27.733-27.733h439.467
	c15.317,0,27.733,12.416,27.733,27.733V110.933z"/>
<rect x="42.667" y="42.667" style="fill:#E64C3C;" width="34.133" height="34.133"/>
<rect x="110.933" y="42.667" style="fill:#F0C419;" width="34.133" height="34.133"/>
<rect x="179.2" y="42.667" style="fill:#24AE5F;" width="34.133" height="34.133"/>
<path style="fill:#26B99A;" d="M315.733,452.267H196.267c-14.114,0-25.6-11.486-25.6-25.6s11.486-25.6,25.6-25.6h119.467
	c14.114,0,25.6,11.486,25.6,25.6S329.847,452.267,315.733,452.267z"/>
<g>
	<path style="fill:#BDC3C7;" d="M341.333,179.2H170.667c-4.71,0-8.533-3.814-8.533-8.533c0-4.719,3.823-8.533,8.533-8.533h170.667
		c4.71,0,8.533,3.814,8.533,8.533C349.867,175.386,346.044,179.2,341.333,179.2z"/>
	<path style="fill:#BDC3C7;" d="M384,213.333H128c-4.71,0-8.533-3.814-8.533-8.533c0-4.719,3.823-8.533,8.533-8.533h256
		c4.71,0,8.533,3.814,8.533,8.533C392.533,209.519,388.71,213.333,384,213.333z"/>
</g>
<path style="fill:#4482C3;" d="M384,298.667H128c-4.71,0-8.533-3.814-8.533-8.533V256c0-4.719,3.823-8.533,8.533-8.533h256
	c4.71,0,8.533,3.814,8.533,8.533v34.133C392.533,294.852,388.71,298.667,384,298.667z"/>
<path style="fill:#E64C3C;" d="M384,366.933H128c-4.71,0-8.533-3.814-8.533-8.533v-34.133c0-4.719,3.823-8.533,8.533-8.533h256
	c4.71,0,8.533,3.814,8.533,8.533V358.4C392.533,363.119,388.71,366.933,384,366.933z"/>
<g>
	<path style="fill:#611C90;" d="M473.6,512H38.4C17.229,512,0,494.771,0,473.6V38.4C0,17.229,17.229,0,38.4,0h435.2
		C494.771,0,512,17.229,512,38.4v435.2C512,494.771,494.771,512,473.6,512z M38.4,17.067c-11.759,0-21.333,9.574-21.333,21.333
		v435.2c0,11.767,9.574,21.333,21.333,21.333h435.2c11.767,0,21.333-9.566,21.333-21.333V38.4c0-11.759-9.566-21.333-21.333-21.333
		H38.4z"/>
	<path style="fill:#611C90;" d="M76.8,85.333H42.667c-4.71,0-8.533-3.823-8.533-8.533V42.667c0-4.71,3.823-8.533,8.533-8.533H76.8
		c4.71,0,8.533,3.823,8.533,8.533V76.8C85.333,81.51,81.51,85.333,76.8,85.333z M51.2,68.267h17.067V51.2H51.2V68.267z"/>
	<path style="fill:#611C90;" d="M145.067,85.333h-34.133c-4.71,0-8.533-3.823-8.533-8.533V42.667c0-4.71,3.823-8.533,8.533-8.533
		h34.133c4.71,0,8.533,3.823,8.533,8.533V76.8C153.6,81.51,149.777,85.333,145.067,85.333z M119.467,68.267h17.067V51.2h-17.067
		V68.267z"/>
	<path style="fill:#611C90;" d="M213.333,85.333H179.2c-4.71,0-8.533-3.823-8.533-8.533V42.667c0-4.71,3.823-8.533,8.533-8.533
		h34.133c4.71,0,8.533,3.823,8.533,8.533V76.8C221.867,81.51,218.044,85.333,213.333,85.333z M187.733,68.267H204.8V51.2h-17.067
		V68.267z"/>
	<path style="fill:#611C90;" d="M503.467,119.467H8.533c-4.71,0-8.533-3.823-8.533-8.533V38.4C0,17.229,17.229,0,38.4,0h435.2
		C494.771,0,512,17.229,512,38.4v72.533C512,115.644,508.186,119.467,503.467,119.467z M17.067,102.4h477.867v-64
		c0-11.759-9.566-21.333-21.333-21.333H38.4c-11.759,0-21.333,9.574-21.333,21.333V102.4z"/>
	<path style="fill:#611C90;" d="M315.733,452.267H196.267c-14.114,0-25.6-11.486-25.6-25.6s11.486-25.6,25.6-25.6h119.467
		c14.114,0,25.6,11.486,25.6,25.6S329.847,452.267,315.733,452.267z M196.267,418.133c-4.702,0-8.533,3.823-8.533,8.533
		s3.831,8.533,8.533,8.533h119.467c4.71,0,8.533-3.823,8.533-8.533s-3.823-8.533-8.533-8.533H196.267z"/>
	<path style="fill:#611C90;" d="M341.333,179.2H170.667c-4.71,0-8.533-3.823-8.533-8.533s3.823-8.533,8.533-8.533h170.667
		c4.719,0,8.533,3.823,8.533,8.533S346.052,179.2,341.333,179.2z"/>
	<path style="fill:#611C90;" d="M384,213.333H128c-4.71,0-8.533-3.823-8.533-8.533c0-4.71,3.823-8.533,8.533-8.533h256
		c4.719,0,8.533,3.823,8.533,8.533C392.533,209.51,388.719,213.333,384,213.333z"/>
	<path style="fill:#611C90;" d="M384,298.667H128c-4.71,0-8.533-3.814-8.533-8.533V256c0-4.71,3.823-8.533,8.533-8.533h256
		c4.719,0,8.533,3.823,8.533,8.533v34.133C392.533,294.852,388.719,298.667,384,298.667z M136.533,281.6h238.933v-17.067H136.533
		V281.6z"/>
	<path style="fill:#611C90;" d="M384,366.933H128c-4.71,0-8.533-3.814-8.533-8.533v-34.133c0-4.719,3.823-8.533,8.533-8.533h256
		c4.719,0,8.533,3.814,8.533,8.533V358.4C392.533,363.119,388.719,366.933,384,366.933z M136.533,349.867h238.933V332.8H136.533
		V349.867z"/>
</g>
<g>
</g>
<g>
</g>
<g>
</g>
<g>
</g>
<g>
</g>
<g>
</g>
<g>
</g>
<g>
</g>
<g>
</g>
<g>
</g>
<g>
</g>
<g>
</g>
<g>
</g>
<g>
</g>
<g>
</g>
</svg>
