<svg height="512.00217pt" viewBox="0 0 512.00217 512.00217" width="512.00217pt" xmlns="http://www.w3.org/2000/svg"><path d="m64.941406 39.195312-24.546875 24.542969-39.191406-39.191406 24.546875-24.54296875zm0 0" fill="#7383bf"/><path d="m503.320312 512.003906c-2.21875 0-4.441406-.851562-6.132812-2.542968l-26.035156-26.035157c-3.394532-3.394531-3.394532-8.878906 0-12.269531 3.386718-3.394531 8.886718-3.394531 12.269531 0l26.035156 26.03125c3.394531 3.394531 3.394531 8.878906 0 12.273438-1.691406 1.691406-3.914062 2.542968-6.136719 2.542968zm0 0" fill="#f2ecbf"/><path d="m105.789062 67.769531-36.816406 36.816407-49.359375-49.359376 36.816407-36.816406zm0 0" fill="#556080"/><path d="m425.21875 462.042969 36.820312-36.820313-52.515624-53.726562-36.820313 36.820312zm0 0" fill="#556080"/><g fill="#7383bf"><path d="m471.152344 483.425781 12.269531-12.269531-21.382813-45.933594-36.820312 36.820313zm0 0"/><path d="m312.414062 262.128906-49.089843 49.089844 1.179687 1.179688h.007813l111 111 49.09375-49.082032zm0 0"/><path d="m56.421875 104.316406 49.089844-49.089844 135.089843 135.089844-49.089843 49.089844zm0 0"/></g><path d="m296.191406 96.609375 52.0625-52.066406 110.527344 110.523437-52.066406 52.066406zm0 0" fill="#c69817"/><path d="m451.660156 162.191406-110.53125-110.53125 44.773438-44.769531c9.1875-9.1875 24.078125-9.1875 33.269531 0l77.261719 77.261719c9.1875 9.191406 9.1875 24.082031 0 33.269531zm0 0" fill="#f76363"/><path d="m304.285156 88.507812-236.734375 236.746094-.78125 2.039063 109.261719 109.261719 2.039062-.78125 236.746094-236.742188zm0 0" fill="#ebba16"/><path d="m66.769531 327.292969-44.042969 116.109375c2.996094 1.050781 5.242188 3.019531 6.675782 5.492187.355468.574219.570312 1.199219.839844 1.816407.128906.328124.277343.640624.382812.980468.695312 1.953125 1.128906 4.007813 1.007812 6.109375 0 .128907.042969.25.042969.378907 2.265625 2.613281 4.46875 5.269531 6.636719 7.976562 1.5625 1.953125 3.0625 3.976562 4.6875 5.882812.277344.332032.449219.539063.617188.738282.066406.042968.292968.234375.867187.796875.449219.453125.945313.878906 1.421875 1.320312.9375-.179687 1.925781-.292969 2.992188-.292969 2.804687 0 5.128906.703126 7.046874 1.847657 1.894532.945312 3.386719 2.316406 4.53125 3.929687l115.554688-43.832031zm0 0" fill="#f2ecbf"/><path d="m23.640625 441-23.640625 62.324219 62.324219-23.640625zm0 0" fill="#28384c"/><path d="m145.953125 406.476562 56.675781-56.675781c3.394532-3.390625 3.394532-8.875 0-12.269531-3.390625-3.394531-8.882812-3.394531-12.269531 0l-56.675781 56.675781zm0 0" fill="#c69817"/><path d="m227.199219 321.640625c2.21875 0 4.441406-.847656 6.132812-2.539063l150.78125-150.78125-12.269531-12.269531-150.78125 150.777344c-3.394531 3.394531-3.394531 8.878906 0 12.273437 1.691406 1.699219 3.914062 2.539063 6.136719 2.539063zm0 0" fill="#c69817"/></svg>