<svg height="464pt" viewBox="0 0 464 464" width="464pt" xmlns="http://www.w3.org/2000/svg"><path d="m464 88v144h-88l-48 48v-48h-56v-144zm0 0" fill="#ea348b"/><path d="m240 320v144h-224v-144h120l48-48v48zm0 0" fill="#46f8ff"/><path d="m224 0v160h-48v64l-48-64h-128v-160zm0 0" fill="#ffa733"/><g fill="#ee8700"><path d="m40 40h16v16h-16zm0 0"/><path d="m72 40h16v16h-16zm0 0"/><path d="m104 40h80v16h-80zm0 0"/><path d="m40 72h80v16h-80zm0 0"/><path d="m136 72h16v16h-16zm0 0"/><path d="m168 72h16v16h-16zm0 0"/><path d="m40 104h144v16h-144zm0 0"/></g><path d="m296 120h16v16h-16zm0 0" fill="#c61469"/><path d="m328 120h16v16h-16zm0 0" fill="#c61469"/><path d="m360 120h80v16h-80zm0 0" fill="#c61469"/><path d="m296 152h80v16h-80zm0 0" fill="#c61469"/><path d="m392 152h16v16h-16zm0 0" fill="#c61469"/><path d="m424 152h16v16h-16zm0 0" fill="#c61469"/><path d="m296 184h144v16h-144zm0 0" fill="#c61469"/><path d="m56 416h16v16h-16zm0 0" fill="#00b6bd"/><path d="m88 416h16v16h-16zm0 0" fill="#00b6bd"/><path d="m120 416h80v16h-80zm0 0" fill="#00b6bd"/><path d="m56 384h80v16h-80zm0 0" fill="#00b6bd"/><path d="m152 384h16v16h-16zm0 0" fill="#00b6bd"/><path d="m184 384h16v16h-16zm0 0" fill="#00b6bd"/><path d="m56 352h144v16h-144zm0 0" fill="#00b6bd"/></svg>