<?xml version="1.0" encoding="iso-8859-1"?>
<!-- Generator: Adobe Illustrator 19.0.0, SVG Export Plug-In . SVG Version: 6.00 Build 0)  -->
<svg version="1.1" id="Capa_1" xmlns="http://www.w3.org/2000/svg" xmlns:xlink="http://www.w3.org/1999/xlink" x="0px" y="0px"
	 viewBox="0 0 512 512" style="enable-background:new 0 0 512 512;" xml:space="preserve">
<path style="fill:#ECF0F1;" d="M475.733,503.467H36.267c-15.317,0-27.733-12.416-27.733-27.733v-364.8h494.933v364.8
	C503.467,491.051,491.051,503.467,475.733,503.467z"/>
<path style="fill:#687492;" d="M503.467,110.933H8.533V36.267c0-15.317,12.416-27.733,27.733-27.733h439.467
	c15.317,0,27.733,12.416,27.733,27.733V110.933z"/>
<rect x="42.667" y="42.667" style="fill:#E64C3C;" width="34.133" height="34.133"/>
<rect x="110.933" y="42.667" style="fill:#F0C419;" width="34.133" height="34.133"/>
<rect x="179.2" y="42.667" style="fill:#24AE5F;" width="34.133" height="34.133"/>
<rect x="162.133" y="153.6" style="fill:#E64C3C;" width="187.733" height="153.6"/>
<rect x="392.533" y="153.6" style="fill:#4482C3;" width="110.933" height="153.6"/>
<path style="fill:#F0C419;" d="M321.766,232.9l-34.133-34.133c-3.328-3.337-8.738-3.337-12.066,0l-28.1,28.1l-11.034-11.034
	c-3.328-3.337-8.738-3.337-12.066,0l-34.133,34.133c-3.337,3.337-3.337,8.73,0,12.066c1.664,1.664,3.849,2.5,6.033,2.5
	s4.369-0.836,6.033-2.5l28.1-28.1l28.1,28.1c1.664,1.664,3.849,2.5,6.033,2.5s4.369-0.836,6.033-2.5
	c3.337-3.337,3.337-8.73,0-12.066l-11.034-11.034l22.067-22.067l28.1,28.1c1.664,1.664,3.849,2.5,6.033,2.5s4.369-0.836,6.033-2.5
	C325.103,241.63,325.103,236.237,321.766,232.9z"/>
<path style="fill:#24AE5F;" d="M315.733,469.333H196.267c-14.114,0-25.6-11.486-25.6-25.6c0-14.114,11.486-25.6,25.6-25.6h119.467
	c14.114,0,25.6,11.486,25.6,25.6C341.333,457.847,329.847,469.333,315.733,469.333z"/>
<g>
	<path style="fill:#B1BEC6;" d="M341.333,358.4H170.667c-4.71,0-8.533-3.823-8.533-8.533c0-4.71,3.823-8.533,8.533-8.533h170.667
		c4.71,0,8.533,3.823,8.533,8.533C349.867,354.577,346.044,358.4,341.333,358.4z"/>
	<path style="fill:#B1BEC6;" d="M384,392.533H128c-4.71,0-8.533-3.823-8.533-8.533s3.823-8.533,8.533-8.533h256
		c4.71,0,8.533,3.823,8.533,8.533S388.71,392.533,384,392.533z"/>
</g>
<path style="fill:#FFFFFF;" d="M435.2,264.533c-2.185,0-4.369-0.836-6.033-2.5c-3.337-3.337-3.337-8.73,0-12.066l19.567-19.567
	l-19.567-19.567c-3.337-3.337-3.337-8.73,0-12.066c3.328-3.337,8.738-3.337,12.066,0l25.6,25.6c3.337,3.337,3.337,8.73,0,12.066
	l-25.6,25.6C439.569,263.697,437.385,264.533,435.2,264.533z"/>
<rect x="8.533" y="153.6" style="fill:#4482C3;" width="110.933" height="153.6"/>
<path style="fill:#FFFFFF;" d="M76.8,264.533c-2.185,0-4.369-0.836-6.033-2.5l-25.6-25.6c-3.337-3.337-3.337-8.73,0-12.066
	l25.6-25.6c3.328-3.337,8.738-3.337,12.066,0c3.337,3.337,3.337,8.73,0,12.066L63.266,230.4l19.567,19.567
	c3.337,3.337,3.337,8.73,0,12.066C81.169,263.697,78.985,264.533,76.8,264.533z"/>
<g>
	<path style="fill:#611C90;" d="M349.867,315.733H162.133c-4.71,0-8.533-3.814-8.533-8.533V153.6c0-4.71,3.823-8.533,8.533-8.533
		h187.733c4.719,0,8.533,3.823,8.533,8.533v153.6C358.4,311.919,354.586,315.733,349.867,315.733z M170.667,298.667h170.667V162.133
		H170.667V298.667z"/>
	<path style="fill:#611C90;" d="M503.467,315.733H392.533c-4.719,0-8.533-3.814-8.533-8.533V153.6c0-4.71,3.814-8.533,8.533-8.533
		h110.933c4.719,0,8.533,3.823,8.533,8.533v153.6C512,311.919,508.186,315.733,503.467,315.733z M401.067,298.667h93.867V162.133
		h-93.867V298.667z"/>
	<path style="fill:#611C90;" d="M196.267,264.533c-2.185,0-4.369-0.836-6.033-2.5c-3.337-3.337-3.337-8.73,0-12.066l34.133-34.133
		c3.337-3.337,8.73-3.337,12.066,0c3.337,3.337,3.337,8.73,0,12.066L202.3,262.033C200.636,263.697,198.451,264.533,196.267,264.533
		z"/>
	<path style="fill:#611C90;" d="M264.533,264.533c-2.185,0-4.369-0.836-6.033-2.5L224.367,227.9c-3.337-3.337-3.337-8.73,0-12.066
		c3.337-3.337,8.73-3.337,12.066,0l34.133,34.133c3.337,3.337,3.337,8.73,0,12.066C268.902,263.697,266.718,264.533,264.533,264.533
		z"/>
	<path style="fill:#611C90;" d="M247.467,247.467c-2.185,0-4.369-0.836-6.033-2.5c-3.337-3.337-3.337-8.73,0-12.066l34.133-34.133
		c3.337-3.337,8.73-3.337,12.066,0c3.337,3.337,3.337,8.73,0,12.066L253.5,244.966C251.836,246.63,249.651,247.467,247.467,247.467z
		"/>
	<path style="fill:#611C90;" d="M315.733,247.467c-2.185,0-4.369-0.836-6.033-2.5l-34.133-34.133c-3.337-3.337-3.337-8.73,0-12.066
		c3.337-3.337,8.73-3.337,12.066,0l34.133,34.133c3.337,3.337,3.337,8.73,0,12.066C320.102,246.63,317.918,247.467,315.733,247.467z
		"/>
	<path style="fill:#611C90;" d="M473.6,512H38.4C17.229,512,0,494.771,0,473.6V38.4C0,17.229,17.229,0,38.4,0h435.2
		C494.771,0,512,17.229,512,38.4v435.2C512,494.771,494.771,512,473.6,512z M38.4,17.067c-11.759,0-21.333,9.574-21.333,21.333
		v435.2c0,11.767,9.574,21.333,21.333,21.333h435.2c11.767,0,21.333-9.566,21.333-21.333V38.4c0-11.759-9.566-21.333-21.333-21.333
		H38.4z"/>
	<path style="fill:#611C90;" d="M76.8,85.333H42.667c-4.71,0-8.533-3.823-8.533-8.533V42.667c0-4.71,3.823-8.533,8.533-8.533H76.8
		c4.71,0,8.533,3.823,8.533,8.533V76.8C85.333,81.51,81.51,85.333,76.8,85.333z M51.2,68.267h17.067V51.2H51.2V68.267z"/>
	<path style="fill:#611C90;" d="M145.067,85.333h-34.133c-4.71,0-8.533-3.823-8.533-8.533V42.667c0-4.71,3.823-8.533,8.533-8.533
		h34.133c4.71,0,8.533,3.823,8.533,8.533V76.8C153.6,81.51,149.777,85.333,145.067,85.333z M119.467,68.267h17.067V51.2h-17.067
		V68.267z"/>
	<path style="fill:#611C90;" d="M213.333,85.333H179.2c-4.71,0-8.533-3.823-8.533-8.533V42.667c0-4.71,3.823-8.533,8.533-8.533
		h34.133c4.71,0,8.533,3.823,8.533,8.533V76.8C221.867,81.51,218.044,85.333,213.333,85.333z M187.733,68.267H204.8V51.2h-17.067
		V68.267z"/>
	<path style="fill:#611C90;" d="M503.467,119.467H8.533c-4.71,0-8.533-3.823-8.533-8.533V38.4C0,17.229,17.229,0,38.4,0h435.2
		C494.771,0,512,17.229,512,38.4v72.533C512,115.644,508.186,119.467,503.467,119.467z M17.067,102.4h477.867v-64
		c0-11.759-9.566-21.333-21.333-21.333H38.4c-11.759,0-21.333,9.574-21.333,21.333V102.4z"/>
	<path style="fill:#611C90;" d="M315.733,469.333H196.267c-14.114,0-25.6-11.486-25.6-25.6c0-14.114,11.486-25.6,25.6-25.6h119.467
		c14.114,0,25.6,11.486,25.6,25.6C341.333,457.847,329.847,469.333,315.733,469.333z M196.267,435.2
		c-4.702,0-8.533,3.823-8.533,8.533c0,4.71,3.831,8.533,8.533,8.533h119.467c4.71,0,8.533-3.823,8.533-8.533
		c0-4.71-3.823-8.533-8.533-8.533H196.267z"/>
	<path style="fill:#611C90;" d="M341.333,358.4H170.667c-4.71,0-8.533-3.814-8.533-8.533c0-4.719,3.823-8.533,8.533-8.533h170.667
		c4.719,0,8.533,3.814,8.533,8.533C349.867,354.586,346.052,358.4,341.333,358.4z"/>
	<path style="fill:#611C90;" d="M384,392.533H128c-4.71,0-8.533-3.814-8.533-8.533c0-4.719,3.823-8.533,8.533-8.533h256
		c4.719,0,8.533,3.814,8.533,8.533C392.533,388.719,388.719,392.533,384,392.533z"/>
	<path style="fill:#611C90;" d="M435.2,264.533c-2.185,0-4.369-0.836-6.033-2.5c-3.337-3.337-3.337-8.73,0-12.066l19.567-19.567
		l-19.567-19.567c-3.337-3.337-3.337-8.73,0-12.066c3.337-3.337,8.73-3.337,12.066,0l25.6,25.6c3.337,3.337,3.337,8.73,0,12.066
		l-25.6,25.6C439.569,263.697,437.385,264.533,435.2,264.533z"/>
	<path style="fill:#611C90;" d="M119.467,315.733H8.533c-4.71,0-8.533-3.814-8.533-8.533V153.6c0-4.71,3.823-8.533,8.533-8.533
		h110.933c4.71,0,8.533,3.823,8.533,8.533v153.6C128,311.919,124.177,315.733,119.467,315.733z M17.067,298.667h93.867V162.133
		H17.067V298.667z"/>
	<path style="fill:#611C90;" d="M76.8,264.533c-2.185,0-4.369-0.836-6.033-2.5l-25.6-25.6c-3.337-3.337-3.337-8.73,0-12.066
		l25.6-25.6c3.337-3.337,8.73-3.337,12.066,0c3.337,3.337,3.337,8.73,0,12.066L63.266,230.4l19.567,19.567
		c3.337,3.337,3.337,8.73,0,12.066C81.169,263.697,78.985,264.533,76.8,264.533z"/>
</g>
<g>
</g>
<g>
</g>
<g>
</g>
<g>
</g>
<g>
</g>
<g>
</g>
<g>
</g>
<g>
</g>
<g>
</g>
<g>
</g>
<g>
</g>
<g>
</g>
<g>
</g>
<g>
</g>
<g>
</g>
</svg>
